HIERARCHY
ROOT SpineBase
{
  OFFSET 0.000000 0.000000 0.000000
  CHANNELS 6 Xposition Yposition Zposition Zrotation Xrotation Yrotation
  JOINT SpineMid
  {
    OFFSET -0.000000 27.736446 0.000000
    CHANNELS 3 Zrotation Xrotation Yrotation
    JOINT SpineShoulder
    {
      OFFSET -0.020820 20.564409 -0.632855
      CHANNELS 3 Zrotation Xrotation Yrotation
      JOINT Neck
      {
        OFFSET -0.041433 6.795506 -0.495695
        CHANNELS 3 Zrotation Xrotation Yrotation
        JOINT Head
        {
          OFFSET -2.778023 13.060382 -0.561017
          CHANNELS 3 Zrotation Xrotation Yrotation
          End Site
          {
            OFFSET 0 0 0
          }
        }
      }
      JOINT ShoulderLeft
      {
        OFFSET -13.916241 -3.796473 6.546543
        CHANNELS 3 Zrotation Xrotation Yrotation
        JOINT ElbowLeft
        {
          OFFSET -0.457250 -19.755517 -2.746553
          CHANNELS 3 Zrotation Xrotation Yrotation
          JOINT WristLeft
          {
            OFFSET 2.907805 -21.898420 -1.180064
            CHANNELS 3 Zrotation Xrotation Yrotation
            JOINT HandLeft
            {
              OFFSET -1.820011 -4.348197 -2.703016
              CHANNELS 3 Zrotation Xrotation Yrotation
              JOINT HandTipLeft
              {
                OFFSET -0.617709 -5.140891 -2.769839
                CHANNELS 3 Zrotation Xrotation Yrotation
                End Site
                {
                  OFFSET 0 0 0
                }
              }
              JOINT ThumbLeft
              {
                OFFSET 2.366727 -2.151102 1.838319
                CHANNELS 3 Zrotation Xrotation Yrotation
                End Site
                {
                  OFFSET 0 0 0
                }
              }
            }
          }
        }
      }
      JOINT ShoulderRight
      {
        OFFSET 10.931194 -4.408849 -10.776890
        CHANNELS 3 Zrotation Xrotation Yrotation
        JOINT ElbowRight
        {
          OFFSET 4.528491 -19.444857 -1.864322
          CHANNELS 3 Zrotation Xrotation Yrotation
          JOINT WristRight
          {
            OFFSET -9.632039 -17.530477 -5.155220
            CHANNELS 3 Zrotation Xrotation Yrotation
            JOINT HandRight
            {
              OFFSET -2.249847 -4.684223 1.276624
              CHANNELS 3 Zrotation Xrotation Yrotation
              JOINT HandTipRight
              {
                OFFSET -5.368451 -5.643808 -3.187035
                CHANNELS 3 Zrotation Xrotation Yrotation
                End Site
                {
                  OFFSET 0 0 0
                }
              }
              JOINT ThumbRight
              {
                OFFSET 2.964386 -3.340418 0.915735
                CHANNELS 3 Zrotation Xrotation Yrotation
                End Site
                {
                  OFFSET 0 0 0
                }
              }
            }
          }
        }
      }
    }
  }
  JOINT HipLeft
  {
    OFFSET -5.531902 0.218940 0.220762
    CHANNELS 3 Zrotation Xrotation Yrotation
    JOINT KneeLeft
    {
      OFFSET 5.161679 -29.133451 8.720369
      CHANNELS 3 Zrotation Xrotation Yrotation
      JOINT AnkleLeft
      {
        OFFSET 6.015751 -32.491831 8.712833
        CHANNELS 3 Zrotation Xrotation Yrotation
        JOINT FootLeft
        {
          OFFSET -2.313744 -6.878452 -5.224397
          CHANNELS 3 Zrotation Xrotation Yrotation
          End Site
          {
            OFFSET 0 0 0
          }
        }
      }
    }
  }
  JOINT HipRight
  {
    OFFSET 5.194045 0.984816 -6.529370
    CHANNELS 3 Zrotation Xrotation Yrotation
    JOINT KneeRight
    {
      OFFSET 7.324914 -27.930146 5.548695
      CHANNELS 3 Zrotation Xrotation Yrotation
      JOINT AnkleRight
      {
        OFFSET 6.588563 -31.366254 7.502992
        CHANNELS 3 Zrotation Xrotation Yrotation
        JOINT FootRight
        {
          OFFSET -4.553186 -3.284234 -9.426810
          CHANNELS 3 Zrotation Xrotation Yrotation
          End Site
          {
            OFFSET 0 0 0
          }
        }
      }
    }
  }
}
MOTION
Frames: 13
Frame Time: 0.033333
20.053877 70.978967 352.964644 1.386394 1.199496 30.245614 0.198551 0.010245 -30.210596 -0.098310 -0.202881 0.065242 -2.857856 -2.026823 -0.423198 0.000000 0.000000 0.000000 -67.923900 22.393688 22.658226 -155.876485 32.610240 -6.898201 -29.297933 11.946653 -135.295002 9.888034 -2.793838 51.352644 0.000000 0.000000 0.000000 0.000000 0.000000 0.000000 -48.296769 53.866093 43.566991 -101.699852 17.732687 -36.532632 -30.244824 -43.135478 -102.487157 -62.770865 51.217615 118.430705 0.000000 0.000000 0.000000 0.000000 0.000000 0.000000 -3.013337 2.734584 -30.658570 4.161506 -2.724971 0.809422 -1.689255 8.517118 -2.620586 0.000000 0.000000 0.000000 0.468439 5.019673 -28.975768 -0.057002 -8.544920 -2.155751 0.133303 5.235710 -1.405332 0.000000 0.000000 0.000000
20.061806 71.056832 352.961858 1.462621 1.209641 29.850851 0.128824 0.012310 -29.816570 -0.121851 -0.191118 0.063719 -2.850472 -1.704832 -0.352253 0.000000 0.000000 0.000000 -68.593025 23.314977 23.498076 -155.966643 32.933989 -4.781768 -29.180535 12.527369 -135.786708 7.152817 -6.032984 49.191324 0.000000 0.000000 0.000000 0.000000 0.000000 0.000000 -48.729850 53.945512 43.955874 -101.951223 17.507399 -36.947884 -29.874003 -44.140830 -102.860172 -57.843966 51.353509 113.434745 0.000000 0.000000 0.000000 0.000000 0.000000 0.000000 -3.286656 2.738066 -30.324526 4.429059 -2.545989 0.918059 0.399372 -0.030544 -1.675028 0.000000 0.000000 0.000000 0.646974 5.497565 -28.456663 -0.137680 -9.071886 -2.317243 0.732619 3.076840 -0.149493 0.000000 0.000000 0.000000
20.005910 71.096524 352.950295 1.425539 1.224373 29.708612 0.140237 -0.022268 -29.673760 -0.134697 -0.186298 0.062114 -2.951085 -1.425500 -0.296465 0.000000 0.000000 0.000000 -69.251866 24.352301 24.420155 -156.104645 33.687271 -3.287602 -29.977196 10.045473 -133.811548 7.363512 -6.289287 50.888128 0.000000 0.000000 0.000000 0.000000 0.000000 0.000000 -47.702931 54.091472 43.312875 -102.926397 17.468749 -36.671761 -30.012621 -44.679835 -103.436018 -47.129154 51.295812 104.307981 0.000000 0.000000 0.000000 0.000000 0.000000 0.000000 -3.226341 2.639357 -30.170393 4.441701 -2.454104 0.935845 -0.408989 -2.341577 -0.362784 0.000000 0.000000 0.000000 0.103134 4.440973 -28.577101 -0.190906 -7.321391 -1.911218 0.698258 2.200732 0.617986 0.000000 0.000000 0.000000
19.946624 71.111423 352.912263 1.369910 1.247585 29.664544 0.168789 -0.061844 -29.628873 -0.134977 -0.183629 0.061595 -3.060238 -1.156917 -0.241329 0.000000 0.000000 0.000000 -69.434629 24.947545 24.860795 -156.247750 34.313610 -3.006287 -28.880188 10.522748 -135.703415 9.365351 -4.719754 53.262026 0.000000 0.000000 0.000000 0.000000 0.000000 0.000000 -49.536841 54.875998 45.279613 -103.115398 17.902788 -38.084210 -31.867162 -48.844668 -108.100964 -54.945341 46.245693 109.628980 0.000000 0.000000 0.000000 0.000000 0.000000 0.000000 -3.014122 2.473040 -30.070728 4.233161 -2.424616 0.875848 -4.113766 1.921409 1.035823 0.000000 0.000000 0.000000 -0.310693 3.551113 -28.753443 -0.102569 -6.088386 -1.571252 0.639305 1.917224 0.546528 0.000000 0.000000 0.000000
19.922378 71.167723 352.902721 1.461996 1.333338 29.837715 0.517814 -0.069815 -29.789838 0.105327 -0.087481 0.100081 -5.316811 -1.756425 -0.487204 0.000000 0.000000 0.000000 -68.340985 23.931071 23.224009 -156.262679 33.183617 -4.339225 -24.356830 17.778430 -145.376077 20.058760 5.582508 62.535831 0.000000 0.000000 0.000000 0.000000 0.000000 0.000000 -45.260986 53.468656 40.565848 -106.347628 16.773793 -35.314151 -23.275894 -40.719881 -96.448681 -47.366015 46.187177 107.644664 0.000000 0.000000 0.000000 0.000000 0.000000 0.000000 -2.910657 2.487141 -30.174270 3.947918 -2.612214 0.762287 -4.822038 1.823317 1.744123 0.000000 0.000000 0.000000 0.018392 4.511374 -28.692682 0.257939 -7.607526 -1.827619 0.326160 2.349626 0.567384 0.000000 0.000000 0.000000
19.929317 71.157684 352.876579 1.542775 1.351361 30.282235 0.327816 -0.167035 -30.235712 -0.064177 -0.233126 0.084500 -5.610163 -0.871639 -0.335042 0.000000 0.000000 0.000000 -67.510798 23.458479 22.878880 -155.890458 34.047122 -8.487635 -18.129035 23.630356 -155.100703 27.663564 19.457397 69.264805 0.000000 0.000000 0.000000 0.000000 0.000000 0.000000 -39.269750 53.041649 36.211269 -108.003188 17.683114 -31.437599 -21.231113 -36.448012 -92.417370 -24.035937 43.283396 91.411324 0.000000 0.000000 0.000000 0.000000 0.000000 0.000000 -2.780133 2.539690 -30.556123 3.566877 -2.701638 0.633637 -9.896135 9.955467 3.527354 0.000000 0.000000 0.000000 -0.131420 4.136065 -29.214768 0.018192 -6.780703 -1.708843 0.487397 1.928372 0.515094 0.000000 0.000000 0.000000
19.970175 71.006471 352.896669 1.535977 1.336063 31.151748 -0.048525 -0.146493 -31.117767 -0.322799 -0.225363 0.046486 -4.987892 0.501925 0.027031 0.000000 0.000000 0.000000 -62.828210 19.397807 19.127331 -156.174404 32.283732 -18.494917 -5.234293 36.854808 -172.351268 38.911830 40.906049 73.339410 0.000000 0.000000 0.000000 0.000000 0.000000 0.000000 -28.732089 50.115790 28.026639 -108.986237 19.132263 -23.585193 -22.678554 -33.444022 -91.538104 -34.291845 49.451512 100.331251 0.000000 0.000000 0.000000 0.000000 0.000000 0.000000 -2.470728 2.683458 -31.339778 2.998028 -3.090828 0.396610 -18.628206 21.990489 8.090396 0.000000 0.000000 0.000000 -0.678749 3.090736 -30.377446 0.118508 -4.975791 -1.237486 0.445974 1.347698 0.385303 0.000000 0.000000 0.000000
20.018196 70.760397 352.940914 1.397683 1.291077 32.307490 -0.508288 -0.045393 -32.292688 -0.560933 -0.163449 0.000745 -3.779058 2.119582 0.482677 0.000000 0.000000 0.000000 -55.717444 13.722818 14.277989 -155.459051 34.569847 -45.985428 -7.737816 33.563377 -160.648228 35.665326 43.965381 70.447594 0.000000 0.000000 0.000000 0.000000 0.000000 0.000000 -17.231841 45.617890 19.730079 -107.010897 22.668551 -14.606122 -30.531965 -33.068573 -95.247314 -33.097435 55.215942 100.048488 0.000000 0.000000 0.000000 0.000000 0.000000 0.000000 -1.999264 2.769676 -32.403608 2.430797 -3.505834 0.150577 -17.228237 29.551254 5.898618 0.000000 0.000000 0.000000 -0.716234 2.374313 -31.675715 0.156639 -4.531927 -1.083290 -0.644230 3.721515 0.076629 0.000000 0.000000 0.000000
20.063143 70.486000 352.990870 1.177985 1.212968 33.649521 -1.652724 -0.356751 -33.667137 -0.000000 0.000000 0.000000 -2.806363 4.535475 0.962438 0.000000 0.000000 0.000000 -47.851318 8.622735 10.454662 -150.730310 39.707431 -89.746031 -8.226733 24.742653 -135.261407 29.064470 34.363221 65.793153 0.000000 0.000000 0.000000 0.000000 0.000000 0.000000 -7.505197 40.760185 13.101980 -104.094645 27.536400 -6.485092 -31.587687 -27.521937 -89.530434 -14.123656 54.325522 85.542417 0.000000 0.000000 0.000000 0.000000 0.000000 0.000000 -1.434335 2.825457 -33.654676 2.107884 -3.705051 0.017986 -15.708768 31.245967 4.413904 0.000000 0.000000 0.000000 -0.082322 2.448731 -32.899619 0.053921 -5.448979 -1.299241 0.155445 1.505764 1.392707 0.000000 0.000000 0.000000
20.083812 70.220215 353.016260 0.870989 1.134384 35.000558 -1.364155 -0.429496 -35.014294 -1.141263 0.437124 -0.076259 -0.978080 5.666292 1.399009 0.000000 0.000000 0.000000 -39.227546 3.671467 6.934734 -139.580939 44.015049 -144.310073 -16.751973 25.059184 -100.992039 28.356822 25.242729 52.963552 0.000000 0.000000 0.000000 0.000000 0.000000 0.000000 0.713765 33.752624 8.209265 -95.897805 32.454176 -1.794895 -33.374151 -19.513079 -80.295830 13.049727 46.433797 64.204079 0.000000 0.000000 0.000000 0.000000 0.000000 0.000000 -0.813622 2.720122 -34.917327 1.730106 -3.793591 -0.115966 -15.175283 27.355300 4.888939 0.000000 0.000000 0.000000 -0.025596 1.664930 -34.395490 0.004399 -4.405387 -1.050632 0.992057 -1.245993 2.311330 0.000000 0.000000 0.000000
20.070011 69.989525 353.037204 0.499190 1.045113 35.908320 -1.640692 0.283548 -35.949596 -0.807295 -0.044286 -0.102506 0.487852 7.262638 1.771261 0.000000 0.000000 0.000000 -32.171980 0.736909 5.075751 -125.573235 44.641697 164.431905 -25.574406 3.707277 -64.791543 21.414801 17.751994 35.583280 0.000000 0.000000 0.000000 0.000000 0.000000 0.000000 6.522984 26.955748 4.853685 -83.508476 36.272344 -0.880138 -28.678427 -4.976487 -62.931433 30.652152 21.531535 52.657764 0.000000 0.000000 0.000000 0.000000 0.000000 0.000000 -0.290707 2.473917 -35.774137 1.516685 -3.700310 -0.167983 -4.411274 16.115792 -1.279801 0.000000 0.000000 0.000000 0.551645 1.229086 -35.259905 -0.424990 -4.042316 -1.070714 0.737023 -0.690360 2.130252 0.000000 0.000000 0.000000
20.129419 69.805494 353.057289 0.296306 0.930309 36.150485 -1.793839 0.401559 -36.200942 -0.729731 -0.043985 -0.113176 1.310116 8.372022 2.005117 0.000000 0.000000 0.000000 -27.178366 -0.185990 4.206235 -112.971927 47.634620 130.100948 -11.793772 -19.218788 -38.972910 4.218804 8.383277 20.552688 0.000000 0.000000 0.000000 0.000000 0.000000 0.000000 10.169255 20.275447 2.662760 -66.495624 37.232088 -3.818989 -18.805106 12.866889 -43.497944 35.194619 -16.414741 49.298703 0.000000 0.000000 0.000000 0.000000 0.000000 0.000000 -0.156387 2.435040 -36.048405 1.651349 -3.546294 -0.098556 2.227213 9.477998 -4.883079 0.000000 0.000000 0.000000 1.839244 2.001703 -35.112418 -1.071778 -5.791912 -1.673176 1.826214 -2.072785 2.549162 0.000000 0.000000 0.000000
20.128095 69.689907 353.043377 0.045108 0.853932 35.595465 -1.703217 0.379600 -35.649722 -0.565360 -0.045670 -0.108194 1.525046 8.747212 2.075696 0.000000 0.000000 0.000000 -24.188985 0.361069 3.900091 -92.297222 51.376515 96.177670 1.193332 -27.807971 -21.070591 3.493673 9.041772 15.057197 0.000000 0.000000 0.000000 0.000000 0.000000 0.000000 11.958750 13.991212 1.269547 -48.260265 35.117118 -7.768398 -4.177286 22.828902 -27.792672 20.500182 -53.084936 42.753343 0.000000 0.000000 0.000000 0.000000 0.000000 0.000000 0.124574 2.143560 -35.462905 1.095636 -2.671917 -0.118934 5.248079 10.963694 -7.735067 0.000000 0.000000 0.000000 1.465402 1.096512 -34.803401 -1.526488 -3.408327 -1.248641 3.451065 -5.762485 2.882057 0.000000 0.000000 0.000000
